<svg width="23" height="23" viewBox="0 0 23 23" fill="none" xmlns="http://www.w3.org/2000/svg">
<path d="M11.5 11.5H10.5C10.5 11.7652 10.6054 12.0196 10.7929 12.2071L11.5 11.5ZM11.5 20.3C6.63991 20.3 2.70001 16.3601 2.70001 11.5H0.700012C0.700012 17.4647 5.53534 22.3 11.5 22.3V20.3ZM20.3 11.5C20.3 16.3601 16.3601 20.3 11.5 20.3V22.3C17.4647 22.3 22.3 17.4647 22.3 11.5H20.3ZM11.5 2.7C16.3601 2.7 20.3 6.63989 20.3 11.5H22.3C22.3 5.53533 17.4647 0.7 11.5 0.7V2.7ZM11.5 0.7C5.53534 0.7 0.700012 5.53533 0.700012 11.5H2.70001C2.70001 6.63989 6.63991 2.7 11.5 2.7V0.7ZM10.5 1V11.5H12.5V1H10.5ZM11.9472 12.3944L20.3472 8.19443L19.4528 6.40557L11.0528 10.6056L11.9472 12.3944ZM10.7929 12.2071L17.7929 19.2071L19.2071 17.7929L12.2071 10.7929L10.7929 12.2071Z" fill="black"/>
</svg>
