<svg width="23" height="23" viewBox="0 0 23 23" fill="none" xmlns="http://www.w3.org/2000/svg">
<path d="M11.9556 1.16852C11.6934 0.943827 11.3066 0.943827 11.0444 1.16852L1 9.77805V19.9C1 21.0598 1.9402 22 3.1 22H8.7C9.0866 22 9.4 21.6866 9.4 21.3V17.1C9.4 15.9402 10.3402 15 11.5 15C12.6598 15 13.6 15.9402 13.6 17.1V21.3C13.6 21.6866 13.9134 22 14.3 22H19.9C21.0598 22 22 21.0598 22 19.9V9.77805L11.9556 1.16852Z" fill="#FFCF26"/>
<path d="M11.5 1.70001L12.1508 0.940756C11.7763 0.619764 11.2237 0.619764 10.8492 0.940756L11.5 1.70001ZM1.70001 10.1L1.04922 9.34075L0.700012 9.64008V10.1H1.70001ZM8.70001 21.3V22.3C9.2523 22.3 9.70001 21.8523 9.70001 21.3H8.70001ZM14.3 21.3H13.3C13.3 21.8523 13.7477 22.3 14.3 22.3V21.3ZM21.3 10.1H22.3V9.64008L21.9508 9.34075L21.3 10.1ZM3.10001 22.3H8.70001V20.3H3.10001V22.3ZM21.9508 9.34075L12.1508 0.940756L10.8492 2.45927L20.6492 10.8593L21.9508 9.34075ZM10.8492 0.940756L1.04922 9.34075L2.3508 10.8593L12.1508 2.45927L10.8492 0.940756ZM9.70001 21.3V17.1H7.70001V21.3H9.70001ZM13.3 17.1V21.3H15.3V17.1H13.3ZM14.3 22.3H19.9V20.3H14.3V22.3ZM22.3 19.9V10.1H20.3V19.9H22.3ZM0.700012 10.1V19.9H2.70001V10.1H0.700012ZM11.5 15.3C12.4941 15.3 13.3 16.1059 13.3 17.1H15.3C15.3 15.0013 13.5987 13.3 11.5 13.3V15.3ZM11.5 13.3C9.40133 13.3 7.70001 15.0013 7.70001 17.1H9.70001C9.70001 16.1059 10.5059 15.3 11.5 15.3V13.3ZM19.9 22.3C21.2255 22.3 22.3 21.2255 22.3 19.9H20.3C20.3 20.1209 20.1209 20.3 19.9 20.3V22.3ZM3.10001 20.3C2.8791 20.3 2.70001 20.1209 2.70001 19.9H0.700012C0.700012 21.2255 1.77453 22.3 3.10001 22.3V20.3Z" fill="black"/>
</svg>
