<svg width="23" height="23" viewBox="0 0 23 23" fill="none" xmlns="http://www.w3.org/2000/svg">
<path fill-rule="evenodd" clip-rule="evenodd" d="M8.79574 1H14.2004L14.4293 2.17135L14.4301 2.17535L14.8066 4.04495C15.3436 4.28631 15.8415 4.58514 16.3021 4.92337L18.1843 4.28191L19.2999 3.92962L19.8825 4.94773L21.4045 7.54364L22 8.58438L21.1133 9.37227L19.7015 10.5963C19.7459 10.871 19.7869 11.1812 19.7869 11.5C19.7869 11.8187 19.7459 12.1289 19.7015 12.4037L21.1195 13.6333L22 14.4156L21.4008 15.4627L19.8827 18.052L19.2999 19.073L18.1699 18.7133L16.3021 18.0766C15.8415 18.4149 15.3435 18.7136 14.8066 18.955L14.4301 20.8245L14.4293 20.8286L14.2004 22H8.79573L8.56894 20.826L8.19102 18.9551C7.65398 18.7137 7.15592 18.4149 6.69528 18.0766L4.8144 18.7176L3.69642 19.0733L3.11572 18.0515L1.59217 15.4552L1 14.4157L1.88411 13.6277L3.29634 12.4033C3.25217 12.1293 3.21042 11.8179 3.21042 11.5C3.21042 11.182 3.25217 10.8707 3.29634 10.5967L1.87704 9.36607L1.00003 8.58437L1.59668 7.53694L3.11591 4.94822L3.69643 3.92929L4.8275 4.28665L6.69527 4.92337C7.1559 4.58508 7.65396 4.28622 8.19102 4.04484L8.56895 2.17386L8.79574 1ZM11.4985 7.9998C9.60211 7.9998 8.06255 9.56723 8.06255 11.5C8.06255 13.4328 9.60209 15.0004 11.4985 15.0004C13.395 15.0004 14.9345 13.4328 14.9345 11.5C14.9345 9.56723 13.3949 7.9998 11.4985 7.9998Z" fill="#FFCF26"/>
<path fill-rule="evenodd" clip-rule="evenodd" d="M9.32161 1.70001L9.20121 2.3114L8.74062 4.54855C8.00422 4.82976 7.33641 5.22854 6.73301 5.70143L4.48181 4.94871L3.87702 4.76123L3.56342 5.30127L2.01361 7.89235L1.70001 8.43247L2.15922 8.834L3.90082 10.3156C3.83782 10.7031 3.75663 11.0865 3.75663 11.4936C3.75663 11.9007 3.83782 12.2841 3.90082 12.6717L2.15922 14.1533L1.70001 14.5548L2.01361 15.0949L3.56342 17.686L3.87702 18.2274L4.48181 18.0386L6.73301 17.2859C7.33641 17.7588 8.00422 18.1574 8.74062 18.4387L9.20121 20.6758L9.32161 21.2873H13.677L13.7988 20.6758L14.258 18.4387C14.9944 18.1574 15.6622 17.7588 16.2656 17.2859L18.5168 18.0386L19.1216 18.2274L19.4366 17.686L20.985 15.0949L21.3 14.5548L20.8394 14.1533L19.0978 12.6717C19.1622 12.2841 19.242 11.9007 19.242 11.4936C19.242 11.0865 19.1622 10.7031 19.0978 10.3156L20.8394 8.834L21.3 8.43247L20.985 7.89235L19.4366 5.30127L19.1216 4.76123L18.5168 4.94871L16.2656 5.70143C15.6622 5.22854 14.9944 4.82976 14.258 4.54855L13.7988 2.3114L13.677 1.70001H9.32161Z" stroke="black" stroke-width="2" stroke-linecap="square" stroke-linejoin="round"/>
<path fill-rule="evenodd" clip-rule="evenodd" d="M14.2995 11.4936C14.2995 13.0382 13.0451 14.2918 11.4995 14.2918C9.9539 14.2918 8.6995 13.0382 8.6995 11.4936C8.6995 9.94901 9.9539 8.69548 11.4995 8.69548C13.0451 8.69548 14.2995 9.94901 14.2995 11.4936Z" stroke="black" stroke-width="2" stroke-linecap="square" stroke-linejoin="round"/>
</svg>
