<svg width="23" height="23" viewBox="0 0 23 23" fill="none" xmlns="http://www.w3.org/2000/svg">
<path fill-rule="evenodd" clip-rule="evenodd" d="M9.32161 1.70001L9.20121 2.3114L8.74062 4.54855C8.00422 4.82976 7.33641 5.22854 6.73301 5.70143L4.48181 4.94871L3.87702 4.76123L3.56342 5.30127L2.01361 7.89235L1.70001 8.43247L2.15922 8.834L3.90082 10.3156C3.83782 10.7031 3.75663 11.0865 3.75663 11.4936C3.75663 11.9007 3.83782 12.2841 3.90082 12.6717L2.15922 14.1533L1.70001 14.5548L2.01361 15.0949L3.56342 17.686L3.87702 18.2274L4.48181 18.0386L6.73301 17.2859C7.33641 17.7588 8.00422 18.1574 8.74062 18.4387L9.20121 20.6758L9.32161 21.2873H13.677L13.7988 20.6758L14.258 18.4387C14.9944 18.1574 15.6622 17.7588 16.2656 17.2859L18.5168 18.0386L19.1216 18.2274L19.4366 17.686L20.985 15.0949L21.3 14.5548L20.8394 14.1533L19.0978 12.6717C19.1622 12.2841 19.242 11.9007 19.242 11.4936C19.242 11.0865 19.1622 10.7031 19.0978 10.3156L20.8394 8.834L21.3 8.43247L20.985 7.89235L19.4366 5.30127L19.1216 4.76123L18.5168 4.94871L16.2656 5.70143C15.6622 5.22854 14.9944 4.82976 14.258 4.54855L13.7988 2.3114L13.677 1.70001H9.32161Z" stroke="black" stroke-width="2" stroke-linecap="square" stroke-linejoin="round"/>
<path fill-rule="evenodd" clip-rule="evenodd" d="M14.2995 11.4936C14.2995 13.0382 13.0451 14.2918 11.4995 14.2918C9.9539 14.2918 8.6995 13.0382 8.6995 11.4936C8.6995 9.94901 9.9539 8.69548 11.4995 8.69548C13.0451 8.69548 14.2995 9.94901 14.2995 11.4936Z" stroke="black" stroke-width="2" stroke-linecap="square" stroke-linejoin="round"/>
</svg>
