<svg width="23" height="21" viewBox="0 0 23 21" fill="none" xmlns="http://www.w3.org/2000/svg">
<path fill-rule="evenodd" clip-rule="evenodd" d="M20.6 17.5L20.6 14H21.203C21.6432 14 22 13.6432 22 13.203V7.79706C22 7.35687 21.6432 7.00003 21.203 7.00003H20.6V3.50003C20.6 2.34023 19.6598 1.40002 18.5 1.40002H3.1C1.9402 1.40002 1 2.34023 1 3.50002V17.5C1 18.6598 1.9402 19.6 3.1 19.6H18.5C19.6598 19.6 20.6 18.6598 20.6 17.5ZM20.6 8.40003V12.6L14.3 12.6C13.1402 12.6 12.2 11.6598 12.2 10.5C12.2 9.34023 13.1402 8.40003 14.3 8.40003H20.6Z" fill="#FFCF26"/>
<rect x="11" y="8" width="10" height="5" fill="#FFCF26"/>
<path d="M19.9 8.39998V3.49998C19.9 2.72678 19.2732 2.09998 18.5 2.09998L3.10001 2.09998C2.32681 2.09998 1.70001 2.72678 1.70001 3.49998L1.70001 17.5C1.70001 18.2732 2.32681 18.9 3.10001 18.9L18.5 18.9C19.2732 18.9 19.9 18.2732 19.9 17.5V12.6M21.203 7.69998H14.3C12.7536 7.69998 11.5 8.95358 11.5 10.5C11.5 12.0464 12.7536 13.3 14.3 13.3H21.203C21.2566 13.3 21.3 13.2565 21.3 13.2029V7.79701C21.3 7.74342 21.2566 7.69998 21.203 7.69998Z" stroke="black" stroke-width="2"/>
</svg>
