<?xml version="1.0" encoding="UTF-8" standalone="no"?>
<!-- Created with Inkscape (http://www.inkscape.org/) -->

<svg
   xmlns:dc="http://purl.org/dc/elements/1.1/"
   xmlns:cc="http://creativecommons.org/ns#"
   xmlns:rdf="http://www.w3.org/1999/02/22-rdf-syntax-ns#"
   xmlns:svg="http://www.w3.org/2000/svg"
   xmlns="http://www.w3.org/2000/svg"
   xmlns:sodipodi="http://sodipodi.sourceforge.net/DTD/sodipodi-0.dtd"
   xmlns:inkscape="http://www.inkscape.org/namespaces/inkscape"
   width="48pt"
   height="48pt"
   viewBox="0 0 16.933334 16.933333"
   version="1.1"
   id="svg979"
   inkscape:version="0.92.4 (5da689c313, 2019-01-14)"
   sodipodi:docname="4 - Growth.svg"
   inkscape:export-filename="E:\TR Design Studio Creative\Project Design\TR Creative Design\Icon Design\Project Hiring\Icon Icons\003 - Business And Finance\Send\3 - Flat\4 - Growth.png"
   inkscape:export-xdpi="768"
   inkscape:export-ydpi="768">
  <defs
     id="defs973" />
  <sodipodi:namedview
     id="base"
     pagecolor="#ffffff"
     bordercolor="#666666"
     borderopacity="1.0"
     inkscape:pageopacity="0.0"
     inkscape:pageshadow="2"
     inkscape:zoom="8.546875"
     inkscape:cx="32"
     inkscape:cy="32"
     inkscape:document-units="pt"
     inkscape:current-layer="layer1"
     showgrid="false"
     units="pt"
     inkscape:window-width="1366"
     inkscape:window-height="716"
     inkscape:window-x="-8"
     inkscape:window-y="-8"
     inkscape:window-maximized="1"
     inkscape:snap-bbox="true"
     inkscape:bbox-nodes="true"
     inkscape:snap-nodes="false"
     showguides="false">
    <inkscape:grid
       type="xygrid"
       id="grid1526" />
    <sodipodi:guide
       position="0.97013909,15.963209"
       orientation="56.666615,0"
       id="guide1528"
       inkscape:locked="false" />
    <sodipodi:guide
       position="0.97013909,0.97016731"
       orientation="0,56.666667"
       id="guide1530"
       inkscape:locked="false" />
    <sodipodi:guide
       position="15.963195,0.97016731"
       orientation="-56.666615,0"
       id="guide1532"
       inkscape:locked="false" />
    <sodipodi:guide
       position="15.963195,15.963209"
       orientation="0,-56.666667"
       id="guide1534"
       inkscape:locked="false" />
  </sodipodi:namedview>
  <metadata
     id="metadata976">
    <rdf:RDF>
      <cc:Work
         rdf:about="">
        <dc:format>image/svg+xml</dc:format>
        <dc:type
           rdf:resource="http://purl.org/dc/dcmitype/StillImage" />
        <dc:title></dc:title>
      </cc:Work>
    </rdf:RDF>
  </metadata>
  <g
     inkscape:label="Layer 1"
     inkscape:groupmode="layer"
     id="layer1"
     transform="translate(0,-280.06668)">
    <g
       style="display:inline;stroke-width:0.8187356"
       id="g1580"
       transform="matrix(1.2213955,0,0,1.2213955,0.71022726,-66.464601)">
      <path
         id="path1532"
         d="m 8.4472656,284.57812 c -0.4625006,0.0722 -0.8955095,0.21018 -1.1894531,0.52149 -0.2939436,0.31131 -0.3858203,0.79225 -0.2109375,1.35156 0.00121,0.004 0.00252,0.008 0.00391,0.0117 0.285429,0.78803 0.7014743,1.25729 1.1992188,1.42578 0.4977445,0.16849 1.0177585,0.018 1.4609375,-0.27539 0.8863577,-0.58681 1.5885927,-1.7363 1.6289067,-2.74023 0.005,-0.14401 -0.106113,-0.26557 -0.25,-0.27344 -0.932823,-0.007 -1.8387401,-0.13748 -2.6425824,-0.0215 z"
         style="color:#000000;font-style:normal;font-variant:normal;font-weight:normal;font-stretch:normal;font-size:medium;line-height:normal;font-family:sans-serif;font-variant-ligatures:normal;font-variant-position:normal;font-variant-caps:normal;font-variant-numeric:normal;font-variant-alternates:normal;font-feature-settings:normal;text-indent:0;text-align:start;text-decoration:none;text-decoration-line:none;text-decoration-style:solid;text-decoration-color:#000000;letter-spacing:normal;word-spacing:normal;text-transform:none;writing-mode:lr-tb;direction:ltr;text-orientation:mixed;dominant-baseline:auto;baseline-shift:baseline;text-anchor:start;white-space:normal;shape-padding:0;clip-rule:nonzero;display:inline;overflow:visible;visibility:visible;isolation:auto;mix-blend-mode:normal;color-interpolation:sRGB;color-interpolation-filters:linearRGB;solid-color:#000000;solid-opacity:1;vector-effect:none;fill:#7cb342;fill-opacity:1;fill-rule:nonzero;stroke:none;stroke-width:0.43324786;stroke-linecap:round;stroke-linejoin:round;stroke-miterlimit:4;stroke-dasharray:none;stroke-dashoffset:0;stroke-opacity:1;color-rendering:auto;image-rendering:auto;shape-rendering:auto;text-rendering:auto;enable-background:accumulate"
         inkscape:connector-curvature="0"
         sodipodi:nodetypes="csccscccc" />
      <path
         transform="matrix(0.26458333,0,0,0.26458333,0,284.3)"
         d="M 34.164062,5.1269531 C 34.020779,5.1288191 33.87957,5.161457 33.75,5.2226562 L 31.884766,6.0800781 C 31.863885,5.6456785 31.564637,5.2745801 31.144531,5.1621094 31.038784,5.1347002 30.92926,5.1248035 30.820312,5.1328125 30.392346,5.1599761 30.02934,5.4569815 29.917969,5.8710938 L 29.580078,7.140625 c -1.356127,0.6283922 -2.6548,1.2543465 -4.015625,1.8535156 -0.509819,0.2205121 -0.74223,0.8142571 -0.517578,1.3222654 0.224218,0.501659 0.811199,0.728428 1.314453,0.507813 1.632465,-0.684986 3.161488,-1.4543896 4.765625,-2.1933596 l 1.789063,0.7402344 c 0.509677,0.2116462 1.094457,-0.029609 1.30664,-0.5390626 0.211647,-0.5096771 -0.02961,-1.0944577 -0.539062,-1.3066406 l -0.08398,-0.035156 0.984375,-0.453125 C 35.085832,6.80543 35.304536,6.2105574 35.072271,5.7089846 34.909099,5.3543287 34.554459,5.127054 34.164067,5.1269533 Z"
         style="color:#000000;font-style:normal;font-variant:normal;font-weight:normal;font-stretch:normal;font-size:medium;line-height:normal;font-family:sans-serif;font-variant-ligatures:normal;font-variant-position:normal;font-variant-caps:normal;font-variant-numeric:normal;font-variant-alternates:normal;font-feature-settings:normal;text-indent:0;text-align:start;text-decoration:none;text-decoration-line:none;text-decoration-style:solid;text-decoration-color:#000000;letter-spacing:normal;word-spacing:normal;text-transform:none;writing-mode:lr-tb;direction:ltr;text-orientation:mixed;dominant-baseline:auto;baseline-shift:baseline;text-anchor:start;white-space:normal;shape-padding:0;clip-rule:nonzero;display:inline;overflow:visible;visibility:visible;isolation:auto;mix-blend-mode:normal;color-interpolation:sRGB;color-interpolation-filters:linearRGB;solid-color:#000000;solid-opacity:1;vector-effect:none;fill:#1b5e20;fill-opacity:1;fill-rule:nonzero;stroke:none;stroke-width:1.6374712;stroke-linecap:round;stroke-linejoin:round;stroke-miterlimit:4;stroke-dasharray:none;stroke-dashoffset:0;stroke-opacity:1;color-rendering:auto;image-rendering:auto;shape-rendering:auto;text-rendering:auto;enable-background:accumulate"
         id="path1448"
         inkscape:connector-curvature="0"
         sodipodi:nodetypes="ccccccccccccccccccc" />
      <path
         id="path1546"
         d="m 4.2539062,284.58984 c -0.9250012,-0.14447 -2.0419281,-0.0142 -2.6445312,0.0195 -0.143899,0.009 -0.254195,0.13135 -0.2480469,0.27539 0.040314,1.00393 0.7405953,2.15147 1.6269531,2.73828 0.443179,0.2934 0.963193,0.44583 1.4609376,0.27734 0.4977445,-0.16849 0.9137898,-0.63775 1.1992187,-1.42578 0.00139,-0.004 0.0027,-0.008 0.00391,-0.0117 0.1748828,-0.55931 0.083006,-1.04025 -0.2109376,-1.35156 -0.3650976,-0.30073 -0.8021805,-0.45892 -1.1875037,-0.52147 z"
         style="color:#000000;font-style:normal;font-variant:normal;font-weight:normal;font-stretch:normal;font-size:medium;line-height:normal;font-family:sans-serif;font-variant-ligatures:normal;font-variant-position:normal;font-variant-caps:normal;font-variant-numeric:normal;font-variant-alternates:normal;font-feature-settings:normal;text-indent:0;text-align:start;text-decoration:none;text-decoration-line:none;text-decoration-style:solid;text-decoration-color:#000000;letter-spacing:normal;word-spacing:normal;text-transform:none;writing-mode:lr-tb;direction:ltr;text-orientation:mixed;dominant-baseline:auto;baseline-shift:baseline;text-anchor:start;white-space:normal;shape-padding:0;clip-rule:nonzero;display:inline;overflow:visible;visibility:visible;isolation:auto;mix-blend-mode:normal;color-interpolation:sRGB;color-interpolation-filters:linearRGB;solid-color:#000000;solid-opacity:1;vector-effect:none;fill:#7cb342;fill-opacity:1;fill-rule:nonzero;stroke:none;stroke-width:0.43324786;stroke-linecap:round;stroke-linejoin:round;stroke-miterlimit:4;stroke-dasharray:none;stroke-dashoffset:0;stroke-opacity:1;color-rendering:auto;image-rendering:auto;shape-rendering:auto;text-rendering:auto;enable-background:accumulate"
         inkscape:connector-curvature="0"
         sodipodi:nodetypes="ccccscccc" />
      <path
         d="m 3.1693157,284.52374 c -0.6060182,0.006 -1.1834846,0.0647 -1.5601115,0.0858 a 0.26460995,0.26460995 0 0 0 -0.248047,0.27544 c 0.00308,0.0768 0.011629,0.15439 0.022221,0.23254 0.6301616,-0.046 1.5469779,-0.12253 2.3414593,0.002 0.4625007,0.0722 0.8935811,0.21011 1.1875244,0.52142 0.2939436,0.31131 0.3857227,0.79203 0.2108399,1.35134 a 0.26460995,0.26460995 0 0 1 -0.00413,0.0119 c -0.1064633,0.29392 -0.2312843,0.54313 -0.3715534,0.7493 0.3657028,-0.23313 0.6746216,-0.65425 0.9007202,-1.27848 a 0.26460995,0.26460995 0 0 0 0.00413,-0.0119 c 0.1748829,-0.55931 0.083104,-1.04003 -0.2108398,-1.35134 -0.2939433,-0.31131 -0.7250237,-0.44917 -1.1875244,-0.52141 -0.3468755,-0.0542 -0.7210775,-0.0697 -1.0846884,-0.0661 z"
         style="color:#000000;font-style:normal;font-variant:normal;font-weight:normal;font-stretch:normal;font-size:medium;line-height:normal;font-family:sans-serif;font-variant-ligatures:normal;font-variant-position:normal;font-variant-caps:normal;font-variant-numeric:normal;font-variant-alternates:normal;font-feature-settings:normal;text-indent:0;text-align:start;text-decoration:none;text-decoration-line:none;text-decoration-style:solid;text-decoration-color:#000000;letter-spacing:normal;word-spacing:normal;text-transform:none;writing-mode:lr-tb;direction:ltr;text-orientation:mixed;dominant-baseline:auto;baseline-shift:baseline;text-anchor:start;white-space:normal;shape-padding:0;clip-rule:nonzero;display:inline;overflow:visible;visibility:visible;isolation:auto;mix-blend-mode:normal;color-interpolation:sRGB;color-interpolation-filters:linearRGB;solid-color:#000000;solid-opacity:1;vector-effect:none;fill:#699938;fill-opacity:1;fill-rule:nonzero;stroke:none;stroke-width:0.43324786;stroke-linecap:round;stroke-linejoin:round;stroke-miterlimit:4;stroke-dasharray:none;stroke-dashoffset:0;stroke-opacity:1;color-rendering:auto;image-rendering:auto;shape-rendering:auto;text-rendering:auto;enable-background:accumulate"
         id="path1561"
         inkscape:connector-curvature="0" />
      <path
         transform="matrix(0.26458333,0,0,0.26458333,0,284.3)"
         d="m 13.847656,5.1679688 c -0.0241,-2.211e-4 -0.04821,4.294e-4 -0.07226,0.00195 -0.369456,0.022425 -0.696308,0.2470887 -0.84961,0.5839843 -0.23252,0.5010447 -0.01477,1.0957125 0.486328,1.328125 l 0.984375,0.453125 -0.08203,0.033203 C 13.805001,7.7805367 13.563743,8.3653203 13.775391,8.875 c 0.212183,0.5094539 0.796963,0.7507087 1.30664,0.5390625 l 1.794922,-0.7402344 c 1.61658,0.6851983 2.814764,1.3071757 4.419918,2.1289029 0.926797,0.553884 1.556637,1.333127 1.556637,2.326174 v 13 c -0.0022,0.55534 0.448566,1.006079 1.003906,1.003906 0.55305,-0.0011 1.000208,-0.450859 0.998047,-1.003906 v -13 c 0,-1.752315 -1.222871,-3.459554 -2.703117,-4.1347644 C 20.928025,8.3203315 19.678421,7.7584961 18.412109,7.1757812 L 18.078125,5.9160156 C 17.962776,5.4801402 17.570007,5.1753641 17.119141,5.171875 v -0.00195 c -0.08793,0.00154 -0.175272,0.014676 -0.259766,0.039063 -0.416711,0.1122885 -0.71437,0.4792447 -0.738281,0.9101562 l -1.867188,-0.859375 c -0.127473,-0.058772 -0.265891,-0.09005 -0.40625,-0.091797 z"
         style="color:#000000;font-style:normal;font-variant:normal;font-weight:normal;font-stretch:normal;font-size:medium;line-height:normal;font-family:sans-serif;font-variant-ligatures:normal;font-variant-position:normal;font-variant-caps:normal;font-variant-numeric:normal;font-variant-alternates:normal;font-feature-settings:normal;text-indent:0;text-align:start;text-decoration:none;text-decoration-line:none;text-decoration-style:solid;text-decoration-color:#000000;letter-spacing:normal;word-spacing:normal;text-transform:none;writing-mode:lr-tb;direction:ltr;text-orientation:mixed;dominant-baseline:auto;baseline-shift:baseline;text-anchor:start;white-space:normal;shape-padding:0;clip-rule:nonzero;display:inline;overflow:visible;visibility:visible;opacity:1;isolation:auto;mix-blend-mode:normal;color-interpolation:sRGB;color-interpolation-filters:linearRGB;solid-color:#000000;solid-opacity:1;vector-effect:none;fill:#1b5e20;fill-opacity:1;fill-rule:nonzero;stroke:none;stroke-width:1.6374712;stroke-linecap:round;stroke-linejoin:round;stroke-miterlimit:4;stroke-dasharray:none;stroke-dashoffset:0;stroke-opacity:1;color-rendering:auto;image-rendering:auto;shape-rendering:auto;text-rendering:auto;enable-background:accumulate"
         id="path1486"
         inkscape:connector-curvature="0"
         sodipodi:nodetypes="ccccccccccccccccccccccccc" />
      <path
         id="path1509"
         d="m 3.4023438,293.85938 c -0.9481849,0 -1.7207032,0.77056 -1.7207032,1.71874 0,0.42462 0.1547337,0.81724 0.4101563,1.11719 0.050445,0.0585 0.1239301,0.092 0.2011719,0.0918 l 8.1054692,-0.006 c 0.07427,5e-5 0.145149,-0.0311 0.195312,-0.0859 0.299418,-0.32875 0.480469,-0.7684 0.480469,-1.24804 0,-1.02148 -0.830085,-1.85352 -1.8515628,-1.85352 -0.036746,0 -0.069811,0.007 -0.1054687,0.01 -0.1481586,-1.46876 -1.296762,-2.6543 -2.8546194,-2.65436 -1.5578573,-7e-5 -2.8602243,1.3023 -2.8602243,2.91009 z"
         style="color:#000000;font-style:normal;font-variant:normal;font-weight:normal;font-stretch:normal;font-size:medium;line-height:normal;font-family:sans-serif;font-variant-ligatures:normal;font-variant-position:normal;font-variant-caps:normal;font-variant-numeric:normal;font-variant-alternates:normal;font-feature-settings:normal;text-indent:0;text-align:start;text-decoration:none;text-decoration-line:none;text-decoration-style:solid;text-decoration-color:#000000;letter-spacing:normal;word-spacing:normal;text-transform:none;writing-mode:lr-tb;direction:ltr;text-orientation:mixed;dominant-baseline:auto;baseline-shift:baseline;text-anchor:start;white-space:normal;shape-padding:0;clip-rule:nonzero;display:inline;overflow:visible;visibility:visible;isolation:auto;mix-blend-mode:normal;color-interpolation:sRGB;color-interpolation-filters:linearRGB;solid-color:#000000;solid-opacity:1;vector-effect:none;fill:#3e2723;fill-opacity:1;fill-rule:nonzero;stroke:none;stroke-width:0.43324786;stroke-linecap:round;stroke-linejoin:round;stroke-miterlimit:4;stroke-dasharray:none;stroke-dashoffset:0;stroke-opacity:1;paint-order:markers fill stroke;color-rendering:auto;image-rendering:auto;shape-rendering:auto;text-rendering:auto;enable-background:accumulate"
         inkscape:connector-curvature="0"
         sodipodi:nodetypes="csccccssccc" />
      <path
         transform="matrix(0.26458333,0,0,0.26458333,0,284.3)"
         d="m 23.857422,29.132812 a 1.0000006,1.0000006 0 0 0 -1.003906,0.996094 v 1.003906 h -0.996094 a 1.0001006,1.0001006 0 0 0 -0.996094,0.996094 v 4.001953 a 1.0001006,1.0001006 0 0 0 0.996094,0.996094 h 2.998047 v 2 h -0.998047 -2 a 1.0000006,1.0000006 0 0 0 -0.996094,1.003906 1.0000006,1.0000006 0 0 0 0.996094,0.996094 h 0.996094 v 1.003906 a 1.0000006,1.0000006 0 0 0 1.003906,0.998047 1.0000006,1.0000006 0 0 0 0.998047,-0.998047 v -1.003906 h 1.003906 a 1.0001006,1.0001006 0 0 0 0.996094,-0.996094 v -4 A 1.0001006,1.0001006 0 0 0 25.859375,35.126953 H 22.853516 V 33.125 h 3.005859 a 1.0000006,1.0000006 0 0 0 0.996094,-0.996094 1.0000006,1.0000006 0 0 0 -0.996094,-0.996094 h -1.003906 v -1.003906 a 1.0000006,1.0000006 0 0 0 -0.998047,-0.996094 z"
         style="color:#000000;font-style:normal;font-variant:normal;font-weight:normal;font-stretch:normal;font-size:medium;line-height:normal;font-family:sans-serif;font-variant-ligatures:normal;font-variant-position:normal;font-variant-caps:normal;font-variant-numeric:normal;font-variant-alternates:normal;font-feature-settings:normal;text-indent:0;text-align:start;text-decoration:none;text-decoration-line:none;text-decoration-style:solid;text-decoration-color:#000000;letter-spacing:normal;word-spacing:normal;text-transform:none;writing-mode:lr-tb;direction:ltr;text-orientation:mixed;dominant-baseline:auto;baseline-shift:baseline;text-anchor:start;white-space:normal;shape-padding:0;clip-rule:nonzero;display:inline;overflow:visible;visibility:visible;opacity:1;isolation:auto;mix-blend-mode:normal;color-interpolation:sRGB;color-interpolation-filters:linearRGB;solid-color:#000000;solid-opacity:1;vector-effect:none;fill:#ffcd40;fill-opacity:1;fill-rule:nonzero;stroke:none;stroke-width:1.6374712;stroke-linecap:round;stroke-linejoin:round;stroke-miterlimit:4;stroke-dasharray:none;stroke-dashoffset:0;stroke-opacity:1;color-rendering:auto;image-rendering:auto;shape-rendering:auto;text-rendering:auto;enable-background:accumulate"
         id="path1494"
         inkscape:connector-curvature="0" />
      <path
         d="m 9.5311993,284.51237 c -0.3632677,-0.004 -0.7372944,0.0115 -1.0841704,0.0656 -0.4625007,0.0722 -0.8951304,0.2101 -1.1890742,0.52141 -0.074472,0.0789 -0.1359723,0.16904 -0.1834515,0.2682 0.2477918,-0.13545 0.5386133,-0.21287 0.843359,-0.26044 0.9250017,-0.14446 2.0401291,-0.012 2.6427318,0.0217 a 0.26460995,0.26460995 0 0 1 0.250114,0.27337 c -0.02746,0.68384 -0.366097,1.43115 -0.8567947,2.02623 0.7676357,-0.62186 1.3494437,-1.64601 1.3859607,-2.5554 a 0.26460995,0.26460995 0 0 0 -0.250114,-0.27337 c -0.376626,-0.0211 -0.953114,-0.0809 -1.5585607,-0.0873 z"
         style="color:#000000;font-style:normal;font-variant:normal;font-weight:normal;font-stretch:normal;font-size:medium;line-height:normal;font-family:sans-serif;font-variant-ligatures:normal;font-variant-position:normal;font-variant-caps:normal;font-variant-numeric:normal;font-variant-alternates:normal;font-feature-settings:normal;text-indent:0;text-align:start;text-decoration:none;text-decoration-line:none;text-decoration-style:solid;text-decoration-color:#000000;letter-spacing:normal;word-spacing:normal;text-transform:none;writing-mode:lr-tb;direction:ltr;text-orientation:mixed;dominant-baseline:auto;baseline-shift:baseline;text-anchor:start;white-space:normal;shape-padding:0;clip-rule:nonzero;display:inline;overflow:visible;visibility:visible;isolation:auto;mix-blend-mode:normal;color-interpolation:sRGB;color-interpolation-filters:linearRGB;solid-color:#000000;solid-opacity:1;vector-effect:none;fill:#699938;fill-opacity:1;fill-rule:nonzero;stroke:none;stroke-width:0.43324786;stroke-linecap:round;stroke-linejoin:round;stroke-miterlimit:4;stroke-dasharray:none;stroke-dashoffset:0;stroke-opacity:1;color-rendering:auto;image-rendering:auto;shape-rendering:auto;text-rendering:auto;enable-background:accumulate"
         id="path1556"
         inkscape:connector-curvature="0" />
      <path
         sodipodi:nodetypes="cscsscccssccc"
         d="m 4.0090573,292.08507 c 0.4913479,-0.37896 1.1052407,-0.60668 1.7740511,-0.60668 1.5079254,0 2.6568365,1.18586 2.8049955,2.65462 0.03566,-0.003 0.06867,-0.0103 0.10542,-0.0103 1.0214774,0 1.8515661,0.83216 1.8515661,1.85364 0,0.28796 -0.0665,0.56081 -0.183452,0.8046 h 0.03669 c 0.07427,8e-5 0.145151,-0.031 0.195337,-0.0858 0.299418,-0.32875 0.480591,-0.76835 0.480591,-1.24799 0,-1.02148 -0.830088,-1.85363 -1.8515654,-1.85363 -0.03675,0 -0.06976,0.007 -0.10542,0.0103 -0.148159,-1.46876 -1.4984513,-2.65462 -2.7219032,-2.65462 -1.2234519,1e-5 -1.8542637,0.44603 -2.3863101,1.13586 z"
         style="color:#000000;font-style:normal;font-variant:normal;font-weight:normal;font-stretch:normal;font-size:medium;line-height:normal;font-family:sans-serif;font-variant-ligatures:normal;font-variant-position:normal;font-variant-caps:normal;font-variant-numeric:normal;font-variant-alternates:normal;font-feature-settings:normal;text-indent:0;text-align:start;text-decoration:none;text-decoration-line:none;text-decoration-style:solid;text-decoration-color:#000000;letter-spacing:normal;word-spacing:normal;text-transform:none;writing-mode:lr-tb;direction:ltr;text-orientation:mixed;dominant-baseline:auto;baseline-shift:baseline;text-anchor:start;white-space:normal;shape-padding:0;clip-rule:nonzero;display:inline;overflow:visible;visibility:visible;isolation:auto;mix-blend-mode:normal;color-interpolation:sRGB;color-interpolation-filters:linearRGB;solid-color:#000000;solid-opacity:1;vector-effect:none;fill:#241615;fill-opacity:1;fill-rule:nonzero;stroke:none;stroke-width:0.43324786;stroke-linecap:round;stroke-linejoin:round;stroke-miterlimit:4;stroke-dasharray:none;stroke-dashoffset:0;stroke-opacity:1;paint-order:markers fill stroke;color-rendering:auto;image-rendering:auto;shape-rendering:auto;text-rendering:auto;enable-background:accumulate"
         id="path1566"
         inkscape:connector-curvature="0" />
    </g>
  </g>
</svg>
